<?xml version="1.0" encoding="utf-8"?>
<!-- Generator: Adobe Illustrator 23.0.5, SVG Export Plug-In . SVG Version: 6.00 Build 0)  -->
<svg version="1.1" id="Слой_1" xmlns="http://www.w3.org/2000/svg" xmlns:xlink="http://www.w3.org/1999/xlink" x="0px" y="0px"
	 viewBox="0 0 1223 833" style="enable-background:new 0 0 1223 833;" xml:space="preserve">
<path d="M621.5,99.5c-3.44-2.36-12.84-9.1-14-19c-0.12-0.99-0.92-7.62,3-11c3.36-2.9,7.99-2.18,9-2c87,15.33,174,30.67,261,46
	c11.67-14.67,23.33-29.33,35-44c2.65-2.61,10.24-9.41,22-11c12.94-1.75,26.46,3.42,35,14c12.15,15.05,7.59,32.86,7,35
	c-3.11,11.31-10.48,18.03-13.5,20.5c7.83,1.5,15.67,3,23.5,4.5c15.55-18.14,29.34-32.94,40-44c4.01-4.16,24.36-25.17,53.5-50.5
	c15.38-13.37,24.72-20.57,38-27c13.25-6.42,31.68-15.34,41-8c9.99,7.87,4.39,30.35,1,44c-3.32,13.35-7.92,22.78-16,38
	c-13.03,24.55-19.97,37.63-34,60c-9.23,14.72-21.72,33.75-37.5,55.5c3.33,8.33,6.67,16.67,10,25c1.97-3.72,6.03-10.19,13.5-15.5
	c3.31-2.35,13.83-9.6,28-8c12.48,1.41,25.32,9.42,31,23c7.39,17.67-2.04,33.46-3,35c-11.33,14.33-22.67,28.67-34,43
	c-0.24,0.25-0.85,0.93-1,2c-0.23,1.66,0.85,2.84,1,3c33.67,79,67.33,158,101,237c0.33,1,2.03,6.47-1,11c0,0-1.7,2.54-5,4
	c-6.37,2.82-16.48-0.95-26-9c-19.72-19.62-39.39-39.28-59-59c-40.89-41.11-81.56-82.44-122-124c-0.62,1.28-2.86,5.54-8,8
	c-1,0.48-5.97,2.73-12,1c-3.5-1-5.84-2.91-7-4c-11-9-22-18-33-27c-19.45,22.38-39.77,45.08-61,68c-25.6,27.65-50.98,53.97-76,79
	c18,33,36,66,54,99c0.21,0.8,1.86,7.32-2,12c-4.1,4.97-12.88,5.99-20,1c-26.33-21-52.67-42-79-63c-2.22,1.32-6.13,3.19-11,3
	c-5.29-0.21-8.86-2.81-16-8c-6.4-4.65-9.62-7.06-11-11c-1.89-5.42-0.03-10.64,1-13c-27.33-21.67-54.67-43.33-82-65
	c-1.03-1.6-2.75-4.75-3-9c-0.14-2.27-0.5-8.49,4-12c3.46-2.69,7.73-2.2,9-2c36.33,9.67,72.67,19.33,109,29
	c18.55-28.08,37.21-56.08,56-84c18.22-27.08,36.55-54.08,55-81c-12.33-10-24.67-20-37-30c-0.61-0.67-5.12-5.79-4-13
	c0.93-5.96,5.07-9.29,6-10C722.46,163.5,636.47,109.78,621.5,99.5z M705,554c-2.22-1.47-10.79-6.75-22-5
	c-16.4,2.56-23.48,17.83-24,19c-7.42,9.77-18.12,23.1-32,38c-32.82,35.24-62.63,56.93-78,68c-72.35,52.08-153.29,82.26-181,92
	c-104.46,36.71-189.22,41.94-210,43c-62.83,3.19-115.74-2.54-154-9c-0.93-0.61-2.12-0.61-3,0c-1.02,0.7-1.3,1.99-1,3
	c0.37,1.23,1.61,2.08,3,2c8.13,2.67,19.81,6.3,34,10c15.64,4.08,79.44,19.98,174,18c19.55-0.41,95.84-2.74,193-28
	c37.09-9.64,103.8-27.43,180-69c58.17-31.73,93.28-61.73,106-73c19.26-17.06,34.27-32.88,45-45c1.67-1.89,4.48-5.57,6-11
	c0.4-1.43,2.02-7.68,0-15c-1.77-6.39-5.45-10.51-11-16C723.95,570.01,715.65,562.35,705,554z"/>
</svg>
